# xmcd
#
# Track frame offsets: 
#        150
#        17971
#        32937
#        51224
#        76109
#        96383
#        108434
#        126585
#        146975
#        167450
#        183038
#
# Disc length: 2673 seconds
#
# Revision: 2
# Processed by: cddbd v1.5.2PL0 Copyright (c) Steve Scherf et al.
# Submitted via: ExactAudioCopy v0.95b4
#
DISCID=950a6f0b
DTITLE=Sound Assembly - In The Pocket
DYEAR=1996
DGENRE=Jazz+Funk
TTITLE0=New Way To Walk, Talk, and Hang
TTITLE1=Deep
TTITLE2=Psychedelic Soul
TTITLE3=Stoned Again
TTITLE4=95 Degrees But Cool
TTITLE5=The Portrait
TTITLE6=In The Pocket
TTITLE7=Live From NY
TTITLE8=Pressure
TTITLE9=Mind Of A Poet
TTITLE10=Once Upon a Time
EXTD=
EXTT0=
EXTT1=
EXTT2=
EXTT3=
EXTT4=
EXTT5=
EXTT6=
EXTT7=
EXTT8=
EXTT9=
EXTT10=
PLAYORDER=
